<svg id="drawing" xmlns="http://www.w3.org/2000/svg" version="1.1" xmlns:xlink="http://www.w3.org/1999/xlink" xmlns:svgjs="http://svgjs.com/svgjs" width="519" height="990" viewBox="281 80 519 990"><defs id="SvgjsDefs1230"><marker id="SvgjsMarker1249" markerWidth="14.289086868996552" markerHeight="19.055054660878554" refX="13.701301616704079" refY="8.71851033606433" viewBox="-0.5877852522924731 -0.8090169943749475 14.289086868996552 19.055054660878554" orient="auto" markerUnits="userSpaceOnUse"><path id="SvgjsPath1250" d="M0 0L12 8.71851033606433L0 17.43702067212866 " stroke="#323232" stroke-width="2" fill="none" transform="matrix(1,0,0,1,0,0)"></path></marker><marker id="SvgjsMarker1256" markerWidth="14.289086868996552" markerHeight="19.055054660878554" refX="13.701301616704079" refY="8.71851033606433" viewBox="-0.5877852522924731 -0.8090169943749475 14.289086868996552 19.055054660878554" orient="auto" markerUnits="userSpaceOnUse"><path id="SvgjsPath1257" d="M0 0L12 8.71851033606433L0 17.43702067212866 " stroke="#323232" stroke-width="2" fill="none" transform="matrix(1,0,0,1,0,0)"></path></marker><marker id="SvgjsMarker1263" markerWidth="14.289086868996552" markerHeight="19.055054660878554" refX="13.701301616704079" refY="8.71851033606433" viewBox="-0.5877852522924731 -0.8090169943749475 14.289086868996552 19.055054660878554" orient="auto" markerUnits="userSpaceOnUse"><path id="SvgjsPath1264" d="M0 0L12 8.71851033606433L0 17.43702067212866 " stroke="#323232" stroke-width="2" fill="none" transform="matrix(1,0,0,1,0,0)"></path></marker><marker id="SvgjsMarker1274" markerWidth="14.289086868996552" markerHeight="19.055054660878554" refX="13.701301616704079" refY="8.71851033606433" viewBox="-0.5877852522924731 -0.8090169943749475 14.289086868996552 19.055054660878554" orient="auto" markerUnits="userSpaceOnUse"><path id="SvgjsPath1275" d="M0 0L12 8.71851033606433L0 17.43702067212866 " stroke="#323232" stroke-width="2" fill="none" transform="matrix(1,0,0,1,0,0)"></path></marker><marker id="SvgjsMarker1281" markerWidth="14.289086868996552" markerHeight="19.055054660878554" refX="13.701301616704079" refY="8.71851033606433" viewBox="-0.5877852522924731 -0.8090169943749475 14.289086868996552 19.055054660878554" orient="auto" markerUnits="userSpaceOnUse"><path id="SvgjsPath1282" d="M0 0L12 8.71851033606433L0 17.43702067212866 " stroke="#323232" stroke-width="2" fill="none" transform="matrix(1,0,0,1,0,0)"></path></marker><marker id="SvgjsMarker1293" markerWidth="14.289086868996552" markerHeight="19.055054660878554" refX="13.701301616704079" refY="8.71851033606433" viewBox="-0.5877852522924731 -0.8090169943749475 14.289086868996552 19.055054660878554" orient="auto" markerUnits="userSpaceOnUse"><path id="SvgjsPath1294" d="M0 0L12 8.71851033606433L0 17.43702067212866 " stroke="#323232" stroke-width="2" fill="none" transform="matrix(1,0,0,1,0,0)"></path></marker><marker id="SvgjsMarker1317" markerWidth="14.289086868996552" markerHeight="19.055054660878554" refX="13.701301616704079" refY="8.71851033606433" viewBox="-0.5877852522924731 -0.8090169943749475 14.289086868996552 19.055054660878554" orient="auto" markerUnits="userSpaceOnUse"><path id="SvgjsPath1318" d="M0 0L12 8.71851033606433L0 17.43702067212866 " stroke="#323232" stroke-width="2" fill="none" transform="matrix(1,0,0,1,0,0)"></path></marker><marker id="SvgjsMarker1329" markerWidth="14.289086868996552" markerHeight="19.055054660878554" refX="13.701301616704079" refY="8.71851033606433" viewBox="-0.5877852522924731 -0.8090169943749475 14.289086868996552 19.055054660878554" orient="auto" markerUnits="userSpaceOnUse"><path id="SvgjsPath1330" d="M0 0L12 8.71851033606433L0 17.43702067212866 " stroke="#323232" stroke-width="2" fill="none" transform="matrix(1,0,0,1,0,0)"></path></marker><marker id="SvgjsMarker1336" markerWidth="14.289086868996552" markerHeight="19.055054660878554" refX="13.701301616704079" refY="8.71851033606433" viewBox="-0.5877852522924731 -0.8090169943749475 14.289086868996552 19.055054660878554" orient="auto" markerUnits="userSpaceOnUse"><path id="SvgjsPath1337" d="M0 0L12 8.71851033606433L0 17.43702067212866 " stroke="#323232" stroke-width="2" fill="none" transform="matrix(1,0,0,1,0,0)"></path></marker><marker id="SvgjsMarker1348" markerWidth="14.289086868996552" markerHeight="19.055054660878554" refX="13.701301616704079" refY="8.71851033606433" viewBox="-0.5877852522924731 -0.8090169943749475 14.289086868996552 19.055054660878554" orient="auto" markerUnits="userSpaceOnUse"><path id="SvgjsPath1349" d="M0 0L12 8.71851033606433L0 17.43702067212866 " stroke="#323232" stroke-width="2" fill="none" transform="matrix(1,0,0,1,0,0)"></path></marker><marker id="SvgjsMarker1366" markerWidth="14.289086868996552" markerHeight="19.055054660878554" refX="13.701301616704079" refY="8.71851033606433" viewBox="-0.5877852522924731 -0.8090169943749475 14.289086868996552 19.055054660878554" orient="auto" markerUnits="userSpaceOnUse"><path id="SvgjsPath1367" d="M0 0L12 8.71851033606433L0 17.43702067212866 " stroke="#323232" stroke-width="2" fill="none" transform="matrix(1,0,0,1,0,0)"></path></marker><marker id="SvgjsMarker1373" markerWidth="14.289086868996552" markerHeight="19.055054660878554" refX="13.701301616704079" refY="8.71851033606433" viewBox="-0.5877852522924731 -0.8090169943749475 14.289086868996552 19.055054660878554" orient="auto" markerUnits="userSpaceOnUse"><path id="SvgjsPath1374" d="M0 0L12 8.71851033606433L0 17.43702067212866 " stroke="#323232" stroke-width="2" fill="none" transform="matrix(1,0,0,1,0,0)"></path></marker><marker id="SvgjsMarker1384" markerWidth="14.289086868996552" markerHeight="19.055054660878554" refX="13.701301616704079" refY="8.71851033606433" viewBox="-0.5877852522924731 -0.8090169943749475 14.289086868996552 19.055054660878554" orient="auto" markerUnits="userSpaceOnUse"><path id="SvgjsPath1385" d="M0 0L12 8.71851033606433L0 17.43702067212866 " stroke="#323232" stroke-width="2" fill="none" transform="matrix(1,0,0,1,0,0)"></path></marker><marker id="SvgjsMarker1391" markerWidth="14.289086868996552" markerHeight="19.055054660878554" refX="13.701301616704079" refY="8.71851033606433" viewBox="-0.5877852522924731 -0.8090169943749475 14.289086868996552 19.055054660878554" orient="auto" markerUnits="userSpaceOnUse"><path id="SvgjsPath1392" d="M0 0L12 8.71851033606433L0 17.43702067212866 " stroke="#323232" stroke-width="2" fill="none" transform="matrix(1,0,0,1,0,0)"></path></marker><marker id="SvgjsMarker1407" markerWidth="16.23606797749979" markerHeight="10.550836550532098" refX="-1" refY="3.8990363547948754" viewBox="-1 -1.3763819204711738 16.23606797749979 10.550836550532098" orient="auto" markerUnits="userSpaceOnUse"><path id="SvgjsPath1408" d="M12 3.8990363547948754L0 7.798072709589751V0Z " stroke="#323232" stroke-width="2" fill="#323232" transform="matrix(1,0,0,1,0,0)"></path></marker><marker id="SvgjsMarker1418" markerWidth="16.23606797749979" markerHeight="10.550836550532098" refX="-1" refY="3.8990363547948754" viewBox="-1 -1.3763819204711738 16.23606797749979 10.550836550532098" orient="auto" markerUnits="userSpaceOnUse"><path id="SvgjsPath1419" d="M12 3.8990363547948754L0 7.798072709589751V0Z " stroke="#323232" stroke-width="2" fill="#323232" transform="matrix(1,0,0,1,0,0)"></path></marker><marker id="SvgjsMarker1429" markerWidth="16.23606797749979" markerHeight="10.550836550532098" refX="-1" refY="3.8990363547948754" viewBox="-1 -1.3763819204711738 16.23606797749979 10.550836550532098" orient="auto" markerUnits="userSpaceOnUse"><path id="SvgjsPath1430" d="M12 3.8990363547948754L0 7.798072709589751V0Z " stroke="#323232" stroke-width="2" fill="#323232" transform="matrix(1,0,0,1,0,0)"></path></marker><marker id="SvgjsMarker1436" markerWidth="16.23606797749979" markerHeight="10.550836550532098" refX="-1" refY="3.8990363547948754" viewBox="-1 -1.3763819204711738 16.23606797749979 10.550836550532098" orient="auto" markerUnits="userSpaceOnUse"><path id="SvgjsPath1437" d="M12 3.8990363547948754L0 7.798072709589751V0Z " stroke="#323232" stroke-width="2" fill="#323232" transform="matrix(1,0,0,1,0,0)"></path></marker><marker id="SvgjsMarker1443" markerWidth="16.23606797749979" markerHeight="10.550836550532098" refX="-1" refY="3.8990363547948754" viewBox="-1 -1.3763819204711738 16.23606797749979 10.550836550532098" orient="auto" markerUnits="userSpaceOnUse"><path id="SvgjsPath1444" d="M12 3.8990363547948754L0 7.798072709589751V0Z " stroke="#323232" stroke-width="2" fill="#323232" transform="matrix(1,0,0,1,0,0)"></path></marker></defs><g id="SvgjsG1231"><path id="SvgjsPath1232" d="M281 80H800V1070H281V80Z " fill-opacity="1" fill="#ffffff"></path><g id="SvgjsG1233"><g id="SvgjsG1234" transform="translate(326 100)" opacity="1"><path id="SvgjsPath1235" d="M16.666666666666668 0L83.33333333333333 0C105.55555555555556 0 105.55555555555556 50 83.33333333333333 50L16.666666666666668 50C-5.555555555555556 50 -5.555555555555556 0 16.666666666666668 0Z " stroke-dasharray="none" stroke="#323232" stroke-width="2" fill="#cfcfcf" opacity="1"></path><g id="SvgjsG1236" transform="matrix(1 0 0 1 10 16.875)" fill="#ffffff"><text id="SvgjsText1237" font-family="Arial,SimSun" fill="#323232" font-size="13" font-weight="normal" font-style="normal" text-anchor="middle" text-decoration="blink" x="40" y="12">点击入口</text></g></g><g id="SvgjsG1238" transform="translate(301 201)" opacity="1"><path id="SvgjsPath1239" d="M0 38L75 0L150 38L75 76L0 38Z " stroke-dasharray="none" stroke="#323232" stroke-width="2" fill="#ffff66" opacity="1"></path><g id="SvgjsG1240" transform="matrix(1 0 0 1 10 29.875)" fill="#ffffff"><text id="SvgjsText1241" font-family="Arial,SimSun" fill="#323232" font-size="13" font-weight="normal" font-style="normal" text-anchor="middle" text-decoration="blink" x="65" y="12">load config</text></g></g><g id="SvgjsG1242" transform="translate(673 277)" opacity="1"><path id="SvgjsPath1243" d="M0 0L107 0L107 60L0 60Z " stroke-dasharray="none" stroke="#323232" stroke-width="2" fill="#66ff66" opacity="1"></path><g id="SvgjsG1244" transform="matrix(1 0 0 1 10 13.75)" fill="#ffffff"><text id="SvgjsText1245" font-family="Arial,SimSun" fill="#323232" font-size="13" font-weight="normal" font-style="normal" text-anchor="middle" text-decoration="blink" x="43.5" y="12">load上次confi</text><text id="SvgjsText1246" font-family="Arial,SimSun" fill="#323232" font-size="13" font-weight="normal" font-style="normal" text-anchor="middle" text-decoration="blink" x="43.5" y="28.25">g</text></g></g><g id="SvgjsG1247"><path id="SvgjsPath1248" d="M376 150L376 173.5L376 173.5L376 197 " stroke-dasharray="none" stroke="#323232" stroke-width="2" fill="none" marker-end="url(#SvgjsMarker1249)"></path><g id="SvgjsG1251" transform="matrix(1 0 0 1 376 165.375)"><path id="SvgjsPath1252" d="M0 0H0V0H0V0Z " fill="#ffffff" transform="translate(0 0)"></path><text id="SvgjsText1253" font-family="Microsoft Yahei,SimSun" fill="#000000" font-size="13" font-weight="normal" font-style="normal" text-anchor="middle" text-decoration="blink" x="0" y="0"></text></g></g><g id="SvgjsG1254"><path id="SvgjsPath1255" d="M376 277L376 334L376 334L376 391 " stroke-dasharray="none" stroke="#323232" stroke-width="2" fill="none" marker-end="url(#SvgjsMarker1256)"></path><g id="SvgjsG1258" transform="matrix(1 0 0 1 376 325.875)"><path id="SvgjsPath1259" d="M0 0H48.890625V13H0V0Z " fill="#ffffff" transform="translate(-24.4453125 0)"></path><text id="SvgjsText1260" font-family="Microsoft Yahei,SimSun" fill="#000000" font-size="13" font-weight="normal" font-style="normal" text-anchor="middle" text-decoration="blink" x="0" y="11">200/304</text></g></g><g id="SvgjsG1261"><path id="SvgjsPath1262" d="M451 239L477 239L477 239L503 239 " stroke-dasharray="none" stroke="#323232" stroke-width="2" fill="none" marker-end="url(#SvgjsMarker1263)"></path><g id="SvgjsG1265" transform="matrix(1 0 0 1 477 230.875)"><path id="SvgjsPath1266" d="M0 0H28.703125V13H0V0Z " fill="#ffffff" transform="translate(-14.3515625 0)"></path><text id="SvgjsText1267" font-family="Microsoft Yahei,SimSun" fill="#000000" font-size="13" font-weight="normal" font-style="normal" text-anchor="middle" text-decoration="blink" x="0" y="11">error</text></g></g><g id="SvgjsG1268" transform="translate(503 201)" opacity="1"><path id="SvgjsPath1269" d="M0 38L75 0L150 38L75 76L0 38Z " stroke-dasharray="none" stroke="#323232" stroke-width="2" fill="#ffff66" opacity="1"></path><g id="SvgjsG1270" transform="matrix(1 0 0 1 10 29.875)" fill="#ffffff"><text id="SvgjsText1271" font-family="Arial,SimSun" fill="#323232" font-size="13" font-weight="normal" font-style="normal" text-anchor="middle" text-decoration="blink" x="65" y="12">config缓存？</text></g></g><g id="SvgjsG1272"><path id="SvgjsPath1273" d="M578 277L578 326.5L578 326.5L578 376 " stroke-dasharray="none" stroke="#323232" stroke-width="2" fill="none" marker-end="url(#SvgjsMarker1274)"></path><g id="SvgjsG1276" transform="matrix(1 0 0 1 578 318.375)"><path id="SvgjsPath1277" d="M0 0H16.4375V13H0V0Z " fill="#ffffff" transform="translate(-8.21875 0)"></path><text id="SvgjsText1278" font-family="Microsoft Yahei,SimSun" fill="#000000" font-size="13" font-weight="normal" font-style="normal" text-anchor="middle" text-decoration="blink" x="0" y="11">no</text></g></g><g id="SvgjsG1279"><path id="SvgjsPath1280" d="M653 239L726.5 239L726.5 277 " stroke-dasharray="none" stroke="#323232" stroke-width="2" fill="none" marker-end="url(#SvgjsMarker1281)"></path><g id="SvgjsG1283" transform="matrix(1 0 0 1 708.75 230.875)"><path id="SvgjsPath1284" d="M0 0H20.453125V13H0V0Z " fill="#ffffff" transform="translate(-10.2265625 0)"></path><text id="SvgjsText1285" font-family="Microsoft Yahei,SimSun" fill="#000000" font-size="13" font-weight="normal" font-style="normal" text-anchor="middle" text-decoration="blink" x="0" y="11">yes</text></g></g><g id="SvgjsG1286" transform="translate(673 376)" opacity="1"><path id="SvgjsPath1287" d="M0 0L107 0L107 60L0 60Z " stroke-dasharray="none" stroke="#323232" stroke-width="2" fill="#66ff66" opacity="1"></path><g id="SvgjsG1288" transform="matrix(1 0 0 1 10 13.75)" fill="#ffffff"><text id="SvgjsText1289" font-family="Arial,SimSun" fill="#323232" font-size="13" font-weight="normal" font-style="normal" text-anchor="middle" text-decoration="blink" x="43.5" y="12">xx${previous v</text><text id="SvgjsText1290" font-family="Arial,SimSun" fill="#323232" font-size="13" font-weight="normal" font-style="normal" text-anchor="middle" text-decoration="blink" x="43.5" y="28.25">ersion}.html</text></g></g><g id="SvgjsG1291"><path id="SvgjsPath1292" d="M726.5 337L726.5 356.5L726.5 356.5L726.5 376 " stroke-dasharray="none" stroke="#323232" stroke-width="2" fill="none" marker-end="url(#SvgjsMarker1293)"></path><g id="SvgjsG1295" transform="matrix(1 0 0 1 726.5 348.375)"><path id="SvgjsPath1296" d="M0 0H0V0H0V0Z " fill="#ffffff" transform="translate(0 0)"></path><text id="SvgjsText1297" font-family="Microsoft Yahei,SimSun" fill="#000000" font-size="13" font-weight="normal" font-style="normal" text-anchor="middle" text-decoration="blink" x="0" y="0"></text></g></g><g id="SvgjsG1298" transform="translate(524.5 376)" opacity="1"><path id="SvgjsPath1299" d="M0 0L107 0L107 60L0 60Z " stroke-dasharray="none" stroke="#323232" stroke-width="2" fill="#66ff66" opacity="1"></path><g id="SvgjsG1300" transform="matrix(1 0 0 1 10 21.875)" fill="#ffffff"><text id="SvgjsText1301" font-family="Arial,SimSun" fill="#323232" font-size="13" font-weight="normal" font-style="normal" text-anchor="middle" text-decoration="blink" x="43.5" y="12">xxxx.html</text></g></g><g id="SvgjsG1302" transform="translate(322.5 376)" opacity="1"><path id="SvgjsPath1303" d="M0 0L107 0L107 60L0 60Z " stroke-dasharray="none" stroke="#323232" stroke-width="2" fill="#66ff66" opacity="1"></path><g id="SvgjsG1304" transform="matrix(1 0 0 1 10 13.75)" fill="#ffffff"><text id="SvgjsText1305" font-family="Arial,SimSun" fill="#323232" font-size="13" font-weight="normal" font-style="normal" text-anchor="middle" text-decoration="blink" x="43.5" y="12">xx${version}.h</text><text id="SvgjsText1306" font-family="Arial,SimSun" fill="#323232" font-size="13" font-weight="normal" font-style="normal" text-anchor="middle" text-decoration="blink" x="43.5" y="28.25">tml</text></g></g><g id="SvgjsG1307" transform="translate(322.5 500)" opacity="1"><path id="SvgjsPath1308" d="M0 0L107 0L107 60L0 60Z " stroke-dasharray="none" stroke="#323232" stroke-width="2" fill="#66ff66" opacity="1"></path><g id="SvgjsG1309" transform="matrix(1 0 0 1 10 21.875)" fill="#ffffff"><text id="SvgjsText1310" font-family="Arial,SimSun" fill="#323232" font-size="13" font-weight="normal" font-style="normal" text-anchor="middle" text-decoration="blink" x="43.5" y="12">new manifest</text></g></g><g id="SvgjsG1311" transform="translate(524.5 500)" opacity="1"><path id="SvgjsPath1312" d="M0 0L107 0L107 60L0 60Z " stroke-dasharray="none" stroke="#323232" stroke-width="2" fill="#66ff66" opacity="1"></path><g id="SvgjsG1313" transform="matrix(1 0 0 1 10 21.875)" fill="#ffffff"><text id="SvgjsText1314" font-family="Arial,SimSun" fill="#323232" font-size="13" font-weight="normal" font-style="normal" text-anchor="middle" text-decoration="blink" x="43.5" y="12">no manifest</text></g></g><g id="SvgjsG1315"><path id="SvgjsPath1316" d="M578 436L578 468L578 468L578 500 " stroke-dasharray="none" stroke="#323232" stroke-width="2" fill="none" marker-end="url(#SvgjsMarker1317)"></path><g id="SvgjsG1319" transform="matrix(1 0 0 1 578 459.875)"><path id="SvgjsPath1320" d="M0 0H0V0H0V0Z " fill="#ffffff" transform="translate(0 0)"></path><text id="SvgjsText1321" font-family="Microsoft Yahei,SimSun" fill="#000000" font-size="13" font-weight="normal" font-style="normal" text-anchor="middle" text-decoration="blink" x="0" y="0"></text></g></g><g id="SvgjsG1322" transform="translate(673 500)" opacity="1"><path id="SvgjsPath1323" d="M0 0L107 0L107 60L0 60Z " stroke-dasharray="none" stroke="#323232" stroke-width="2" fill="#66ff66" opacity="1"></path><g id="SvgjsG1324" transform="matrix(1 0 0 1 10 13.75)" fill="#ffffff"><text id="SvgjsText1325" font-family="Arial,SimSun" fill="#323232" font-size="13" font-weight="normal" font-style="normal" text-anchor="middle" text-decoration="blink" x="43.5" y="12">previous man</text><text id="SvgjsText1326" font-family="Arial,SimSun" fill="#323232" font-size="13" font-weight="normal" font-style="normal" text-anchor="middle" text-decoration="blink" x="43.5" y="28.25">ifest</text></g></g><g id="SvgjsG1327"><path id="SvgjsPath1328" d="M726.5 436L726.5 468L726.5 468L726.5 500 " stroke-dasharray="none" stroke="#323232" stroke-width="2" fill="none" marker-end="url(#SvgjsMarker1329)"></path><g id="SvgjsG1331" transform="matrix(1 0 0 1 726.5 459.875)"><path id="SvgjsPath1332" d="M0 0H0V0H0V0Z " fill="#ffffff" transform="translate(0 0)"></path><text id="SvgjsText1333" font-family="Microsoft Yahei,SimSun" fill="#000000" font-size="13" font-weight="normal" font-style="normal" text-anchor="middle" text-decoration="blink" x="0" y="0"></text></g></g><g id="SvgjsG1334"><path id="SvgjsPath1335" d="M376 436L376 468L376 468L376 500 " stroke-dasharray="none" stroke="#323232" stroke-width="2" fill="none" marker-end="url(#SvgjsMarker1336)"></path><g id="SvgjsG1338" transform="matrix(1 0 0 1 376 459.875)"><path id="SvgjsPath1339" d="M0 0H0V0H0V0Z " fill="#ffffff" transform="translate(0 0)"></path><text id="SvgjsText1340" font-family="Microsoft Yahei,SimSun" fill="#000000" font-size="13" font-weight="normal" font-style="normal" text-anchor="middle" text-decoration="blink" x="0" y="0"></text></g></g><g id="SvgjsG1341" transform="translate(524.5 609)" opacity="1"><path id="SvgjsPath1342" d="M0 0L107 0L107 60L0 60Z " stroke-dasharray="none" stroke="#323232" stroke-width="2" fill="#66ff66" opacity="1"></path><g id="SvgjsG1343" transform="matrix(1 0 0 1 10 13.75)" fill="#ffffff"><text id="SvgjsText1344" font-family="Arial,SimSun" fill="#323232" font-size="13" font-weight="normal" font-style="normal" text-anchor="middle" text-decoration="blink" x="43.5" y="12">错误提示／请</text><text id="SvgjsText1345" font-family="Arial,SimSun" fill="#323232" font-size="13" font-weight="normal" font-style="normal" text-anchor="middle" text-decoration="blink" x="43.5" y="28.25">求远程资源</text></g></g><g id="SvgjsG1346"><path id="SvgjsPath1347" d="M578 560L578 584.5L578 584.5L578 609 " stroke-dasharray="none" stroke="#323232" stroke-width="2" fill="none" marker-end="url(#SvgjsMarker1348)"></path><g id="SvgjsG1350" transform="matrix(1 0 0 1 578 576.375)"><path id="SvgjsPath1351" d="M0 0H0V0H0V0Z " fill="#ffffff" transform="translate(0 0)"></path><text id="SvgjsText1352" font-family="Microsoft Yahei,SimSun" fill="#000000" font-size="13" font-weight="normal" font-style="normal" text-anchor="middle" text-decoration="blink" x="0" y="0"></text></g></g><g id="SvgjsG1353" transform="translate(673 609)" opacity="1"><path id="SvgjsPath1354" d="M0 0L107 0L107 60L0 60Z " stroke-dasharray="none" stroke="#323232" stroke-width="2" fill="#66ff66" opacity="1"></path><g id="SvgjsG1355" transform="matrix(1 0 0 1 10 5.625)" fill="#ffffff"><text id="SvgjsText1356" font-family="Arial,SimSun" fill="#323232" font-size="13" font-weight="normal" font-style="normal" text-anchor="middle" text-decoration="blink" x="43.5" y="12">load断线之前的</text><text id="SvgjsText1357" font-family="Arial,SimSun" fill="#323232" font-size="13" font-weight="normal" font-style="normal" text-anchor="middle" text-decoration="blink" x="43.5" y="28.25">最近一次缓存</text><text id="SvgjsText1358" font-family="Arial,SimSun" fill="#323232" font-size="13" font-weight="normal" font-style="normal" text-anchor="middle" text-decoration="blink" x="43.5" y="44.5">资源</text></g></g><g id="SvgjsG1359" transform="translate(322.5 609)" opacity="1"><path id="SvgjsPath1360" d="M0 0L107 0L107 60L0 60Z " stroke-dasharray="none" stroke="#323232" stroke-width="2" fill="#66ff66" opacity="1"></path><g id="SvgjsG1361" transform="matrix(1 0 0 1 10 13.75)" fill="#ffffff"><text id="SvgjsText1362" font-family="Arial,SimSun" fill="#323232" font-size="13" font-weight="normal" font-style="normal" text-anchor="middle" text-decoration="blink" x="43.5" y="12">load最新的缓存</text><text id="SvgjsText1363" font-family="Arial,SimSun" fill="#323232" font-size="13" font-weight="normal" font-style="normal" text-anchor="middle" text-decoration="blink" x="43.5" y="28.25">资源</text></g></g><g id="SvgjsG1364"><path id="SvgjsPath1365" d="M376 560L376 584.5L376 584.5L376 609 " stroke-dasharray="none" stroke="#323232" stroke-width="2" fill="none" marker-end="url(#SvgjsMarker1366)"></path><g id="SvgjsG1368" transform="matrix(1 0 0 1 376 576.375)"><path id="SvgjsPath1369" d="M0 0H0V0H0V0Z " fill="#ffffff" transform="translate(0 0)"></path><text id="SvgjsText1370" font-family="Microsoft Yahei,SimSun" fill="#000000" font-size="13" font-weight="normal" font-style="normal" text-anchor="middle" text-decoration="blink" x="0" y="0"></text></g></g><g id="SvgjsG1371"><path id="SvgjsPath1372" d="M726.5 560L726.5 584.5L726.5 584.5L726.5 609 " stroke-dasharray="none" stroke="#323232" stroke-width="2" fill="none" marker-end="url(#SvgjsMarker1373)"></path><g id="SvgjsG1375" transform="matrix(1 0 0 1 726.5 576.375)"><path id="SvgjsPath1376" d="M0 0H0V0H0V0Z " fill="#ffffff" transform="translate(0 0)"></path><text id="SvgjsText1377" font-family="Microsoft Yahei,SimSun" fill="#000000" font-size="13" font-weight="normal" font-style="normal" text-anchor="middle" text-decoration="blink" x="0" y="0"></text></g></g><g id="SvgjsG1378" transform="translate(301 719)" opacity="1"><path id="SvgjsPath1379" d="M0 38L75 0L150 38L75 76L0 38Z " stroke-dasharray="none" stroke="#323232" stroke-width="2" fill="#ffff66" opacity="1"></path><g id="SvgjsG1380" transform="matrix(1 0 0 1 10 29.875)" fill="#ffffff"><text id="SvgjsText1381" font-family="Arial,SimSun" fill="#323232" font-size="13" font-weight="normal" font-style="normal" text-anchor="middle" text-decoration="blink" x="65" y="12">localStorage？</text></g></g><g id="SvgjsG1382"><path id="SvgjsPath1383" d="M376 669L376 694L376 694L376 719 " stroke-dasharray="none" stroke="#323232" stroke-width="2" fill="none" marker-end="url(#SvgjsMarker1384)"></path><g id="SvgjsG1386" transform="matrix(1 0 0 1 376 685.875)"><path id="SvgjsPath1387" d="M0 0H0V0H0V0Z " fill="#ffffff" transform="translate(0 0)"></path><text id="SvgjsText1388" font-family="Microsoft Yahei,SimSun" fill="#000000" font-size="13" font-weight="normal" font-style="normal" text-anchor="middle" text-decoration="blink" x="0" y="0"></text></g></g><g id="SvgjsG1389"><path id="SvgjsPath1390" d="M578 669L578 695L376 695 " stroke-dasharray="none" stroke="#323232" stroke-width="2" fill="none" marker-end="url(#SvgjsMarker1391)"></path><g id="SvgjsG1393" transform="matrix(1 0 0 1 490 686.875)"><path id="SvgjsPath1394" d="M0 0H0V0H0V0Z " fill="#ffffff" transform="translate(0 0)"></path><text id="SvgjsText1395" font-family="Microsoft Yahei,SimSun" fill="#000000" font-size="13" font-weight="normal" font-style="normal" text-anchor="middle" text-decoration="blink" x="0" y="0"></text></g></g><g id="SvgjsG1396"><path id="SvgjsPath1397" d="M726.5 669L726.5 695L577 695 " stroke-dasharray="none" stroke="#323232" stroke-width="2" fill="none"></path><g id="SvgjsG1398" transform="matrix(1 0 0 1 664.75 686.875)"><path id="SvgjsPath1399" d="M0 0H0V0H0V0Z " fill="#ffffff" transform="translate(0 0)"></path><text id="SvgjsText1400" font-family="Microsoft Yahei,SimSun" fill="#000000" font-size="13" font-weight="normal" font-style="normal" text-anchor="middle" text-decoration="blink" x="0" y="0"></text></g></g><g id="SvgjsG1401" transform="translate(514.5 727)" opacity="1"><path id="SvgjsPath1402" d="M0 0L107 0L107 60L0 60Z " stroke-dasharray="none" stroke="#323232" stroke-width="2" fill="#66ff66" opacity="1"></path><g id="SvgjsG1403" transform="matrix(1 0 0 1 10 21.875)" fill="#ffffff"><text id="SvgjsText1404" font-family="Arial,SimSun" fill="#323232" font-size="13" font-weight="normal" font-style="normal" text-anchor="middle" text-decoration="blink" x="43.5" y="12">数据填充</text></g></g><g id="SvgjsG1405"><path id="SvgjsPath1406" d="M451 757L499.2639320225002 757 " stroke-dasharray="none" stroke="#323232" stroke-width="2" fill="none" marker-end="url(#SvgjsMarker1407)"></path><g id="SvgjsG1409" transform="matrix(1 0 0 1 475.13196601125014 748.875)"><path id="SvgjsPath1410" d="M0 0H20.453125V13H0V0Z " fill="#ffffff" transform="translate(-10.2265625 0)"></path><text id="SvgjsText1411" font-family="Microsoft Yahei,SimSun" fill="#000000" font-size="13" font-weight="normal" font-style="normal" text-anchor="middle" text-decoration="blink" x="0" y="11">yes</text></g></g><g id="SvgjsG1412" transform="translate(514.5 830)" opacity="1"><path id="SvgjsPath1413" d="M0 0L107 0L107 60L0 60Z " stroke-dasharray="none" stroke="#323232" stroke-width="2" fill="#66ff66" opacity="1"></path><g id="SvgjsG1414" transform="matrix(1 0 0 1 10 21.875)" fill="#ffffff"><text id="SvgjsText1415" font-family="Arial,SimSun" fill="#323232" font-size="13" font-weight="normal" font-style="normal" text-anchor="middle" text-decoration="blink" x="43.5" y="12">页面展示</text></g></g><g id="SvgjsG1416"><path id="SvgjsPath1417" d="M568 787L568 814.7639320225002 " stroke-dasharray="none" stroke="#323232" stroke-width="2" fill="none" marker-end="url(#SvgjsMarker1418)"></path><g id="SvgjsG1420" transform="matrix(1 0 0 1 568 792.7569660112501)"><path id="SvgjsPath1421" d="M0 0H0V0H0V0Z " fill="#ffffff" transform="translate(0 0)"></path><text id="SvgjsText1422" font-family="Microsoft Yahei,SimSun" fill="#000000" font-size="13" font-weight="normal" font-style="normal" text-anchor="middle" text-decoration="blink" x="0" y="0"></text></g></g><g id="SvgjsG1423" transform="translate(322.5 880)" opacity="1"><path id="SvgjsPath1424" d="M0 0L107 0L107 60L0 60Z " stroke-dasharray="none" stroke="#323232" stroke-width="2" fill="#66ff66" opacity="1"></path><g id="SvgjsG1425" transform="matrix(1 0 0 1 10 21.875)" fill="#ffffff"><text id="SvgjsText1426" font-family="Arial,SimSun" fill="#323232" font-size="13" font-weight="normal" font-style="normal" text-anchor="middle" text-decoration="blink" x="43.5" y="12">请求接口</text></g></g><g id="SvgjsG1427"><path id="SvgjsPath1428" d="M376 795L376 864.7639320225002 " stroke-dasharray="none" stroke="#323232" stroke-width="2" fill="none" marker-end="url(#SvgjsMarker1429)"></path><g id="SvgjsG1431" transform="matrix(1 0 0 1 376 821.7569660112501)"><path id="SvgjsPath1432" d="M0 0H16.4375V13H0V0Z " fill="#ffffff" transform="translate(-8.21875 0)"></path><text id="SvgjsText1433" font-family="Microsoft Yahei,SimSun" fill="#000000" font-size="13" font-weight="normal" font-style="normal" text-anchor="middle" text-decoration="blink" x="0" y="11">no</text></g></g><g id="SvgjsG1434"><path id="SvgjsPath1435" d="M376 940L376 974.7639320225002 " stroke-dasharray="none" stroke="#323232" stroke-width="2" fill="none" marker-end="url(#SvgjsMarker1436)"></path><g id="SvgjsG1438" transform="matrix(1 0 0 1 376 949.2569660112501)"><path id="SvgjsPath1439" d="M0 0H0V0H0V0Z " fill="#ffffff" transform="translate(0 0)"></path><text id="SvgjsText1440" font-family="Microsoft Yahei,SimSun" fill="#000000" font-size="13" font-weight="normal" font-style="normal" text-anchor="middle" text-decoration="blink" x="0" y="0"></text></g></g><g id="SvgjsG1441"><path id="SvgjsPath1442" d="M514.5 860L394.2360679774998 860 " stroke-dasharray="none" stroke="#323232" stroke-width="2" fill="none" marker-end="url(#SvgjsMarker1443)"></path><g id="SvgjsG1445" transform="matrix(1 0 0 1 574.6319660112501 851.875)"><path id="SvgjsPath1446" d="M0 0H0V0H0V0Z " fill="#ffffff" transform="translate(0 0)"></path><text id="SvgjsText1447" font-family="Microsoft Yahei,SimSun" fill="#000000" font-size="13" font-weight="normal" font-style="normal" text-anchor="middle" text-decoration="blink" x="0" y="0"></text></g></g><g id="SvgjsG1448" transform="translate(322.5 990)" opacity="1"><path id="SvgjsPath1449" d="M0 0L107 0L107 60L0 60Z " stroke-dasharray="none" stroke="#323232" stroke-width="2" fill="#66ff66" opacity="1"></path><g id="SvgjsG1450" transform="matrix(1 0 0 1 10 13.75)" fill="#ffffff"><text id="SvgjsText1451" font-family="Arial,SimSun" fill="#323232" font-size="13" font-weight="normal" font-style="normal" text-anchor="middle" text-decoration="blink" x="43.5" y="12">页面展示／局</text><text id="SvgjsText1452" font-family="Arial,SimSun" fill="#323232" font-size="13" font-weight="normal" font-style="normal" text-anchor="middle" text-decoration="blink" x="43.5" y="28.25">部刷新</text></g></g></g></g></svg>